<svg version="1.1" viewBox="0.0 0.0 10.0 10.0" fill="none" stroke="none" stroke-linecap="square" stroke-miterlimit="10" xmlns:xlink="http://www.w3.org/1999/xlink" xmlns="http://www.w3.org/2000/svg"><clipPath id="p.0"><path d="m0 0l10.0 0l0 10.0l-10.0 0l0 -10.0z" clip-rule="nonzero"/></clipPath><g clip-path="url(#p.0)"><path fill="#000000" fill-opacity="0.0" d="m0 0l10.0 0l0 10.0l-10.0 0z" fill-rule="evenodd"/><path fill="#ff6464" d="m-0.0057564303 4.997224l0 0c0 -2.7609403 2.2381842 -4.9991245 4.9991245 -4.9991245l0 0c1.32585 0 2.5973969 0.526692 3.534915 1.4642097c0.93751717 0.93751764 1.4642096 2.2090645 1.4642096 3.534915l0 0c0 2.76094 -2.2381845 4.9991245 -4.9991245 4.9991245l0 0c-2.7609403 0 -4.9991245 -2.2381845 -4.9991245 -4.9991245z" fill-rule="evenodd"/><path fill="#ffffff" d="m1.1907349 4.997224l0 0c0 -2.1001365 1.7024968 -3.8026333 3.8026333 -3.8026333l0 0c1.0085206 0 1.9757357 0.40063334 2.6888676 1.1137655c0.7131319 0.7131319 1.1137657 1.6803465 1.1137657 2.6888678l0 0c0 2.1001358 -1.702497 3.8026333 -3.8026333 3.8026333l0 0c-2.1001365 0 -3.8026333 -1.7024975 -3.8026333 -3.8026333zm0.8339174 0l0 0c0 1.639576 1.3291395 2.9687152 2.968716 2.9687152c1.6395764 0 2.9687157 -1.3291392 2.9687157 -2.9687152l0 0c0 -1.6395767 -1.3291392 -2.968716 -2.9687157 -2.968716l0 0c-1.6395764 0 -2.968716 1.3291392 -2.968716 2.968716z" fill-rule="evenodd"/><path fill="#ffffff" d="m8.796001 4.997224l0 0c0 2.1001358 -1.702497 3.8026333 -3.8026333 3.8026333c-2.1001365 0 -3.8026333 -1.7024975 -3.8026333 -3.8026333c0 -2.1001365 1.7024968 -3.8026333 3.8026333 -3.8026333l0 3.8026333z" fill-rule="evenodd"/></g></svg>